<svg xmlns="http://www.w3.org/2000/svg" viewBox="0 0 200 200" fill="none" stroke="#fff" stroke-linecap="round" stroke-linejoin="round"><circle cx="100" cy="100" r="94" stroke-width="1.6"/><circle cx="100" cy="100" r="88" stroke-width=".8"/><circle cx="100" cy="100" r="66" stroke-width="1.2"/><circle cx="100" cy="100" r="61" stroke-width=".6" stroke-dasharray="2 4"/><path d="M188 100L180 100" stroke-width="1.2"/><path d="M187.67 107.67L184.18 107.36" stroke-width="0.6"/><path d="M186.66 115.28L183.22 114.67" stroke-width="0.6"/><path d="M185 122.78L181.62 121.87" stroke-width="0.6"/><path d="M182.69 130.1L179.4 128.9" stroke-width="0.6"/><path d="M179.76 137.19L176.58 135.71" stroke-width="0.6"/><path d="M176.21 144L169.28 140" stroke-width="1.2"/><path d="M172.09 150.47L169.22 148.47" stroke-width="0.6"/><path d="M167.41 156.57L164.73 154.32" stroke-width="0.6"/><path d="M162.23 162.23L159.75 159.75" stroke-width="0.6"/><path d="M156.57 167.41L154.32 164.73" stroke-width="0.6"/><path d="M150.47 172.09L148.47 169.22" stroke-width="0.6"/><path d="M144 176.21L140 169.28" stroke-width="1.2"/><path d="M137.19 179.76L135.71 176.58" stroke-width="0.6"/><path d="M130.1 182.69L128.9 179.4" stroke-width="0.6"/><path d="M122.78 185L121.87 181.62" stroke-width="0.6"/><path d="M115.28 186.66L114.67 183.22" stroke-width="0.6"/><path d="M107.67 187.67L107.36 184.18" stroke-width="0.6"/><path d="M100 188L100 180" stroke-width="1.2"/><path d="M92.33 187.67L92.64 184.18" stroke-width="0.6"/><path d="M84.72 186.66L85.33 183.22" stroke-width="0.6"/><path d="M77.22 185L78.13 181.62" stroke-width="0.6"/><path d="M69.9 182.69L71.1 179.4" stroke-width="0.6"/><path d="M62.81 179.76L64.29 176.58" stroke-width="0.6"/><path d="M56 176.21L60 169.28" stroke-width="1.2"/><path d="M49.53 172.09L51.53 169.22" stroke-width="0.6"/><path d="M43.43 167.41L45.68 164.73" stroke-width="0.6"/><path d="M37.77 162.23L40.25 159.75" stroke-width="0.6"/><path d="M32.59 156.57L35.27 154.32" stroke-width="0.6"/><path d="M27.91 150.47L30.78 148.47" stroke-width="0.6"/><path d="M23.79 144L30.72 140" stroke-width="1.2"/><path d="M20.24 137.19L23.42 135.71" stroke-width="0.6"/><path d="M17.31 130.1L20.6 128.9" stroke-width="0.6"/><path d="M15 122.78L18.38 121.87" stroke-width="0.6"/><path d="M13.34 115.28L16.78 114.67" stroke-width="0.6"/><path d="M12.33 107.67L15.82 107.36" stroke-width="0.6"/><path d="M12 100L20 100" stroke-width="1.2"/><path d="M12.33 92.33L15.82 92.64" stroke-width="0.6"/><path d="M13.34 84.72L16.78 85.33" stroke-width="0.6"/><path d="M15 77.22L18.38 78.13" stroke-width="0.6"/><path d="M17.31 69.9L20.6 71.1" stroke-width="0.6"/><path d="M20.24 62.81L23.42 64.29" stroke-width="0.6"/><path d="M23.79 56L30.72 60" stroke-width="1.2"/><path d="M27.91 49.53L30.78 51.53" stroke-width="0.6"/><path d="M32.59 43.43L35.27 45.68" stroke-width="0.6"/><path d="M37.77 37.77L40.25 40.25" stroke-width="0.6"/><path d="M43.43 32.59L45.68 35.27" stroke-width="0.6"/><path d="M49.53 27.91L51.53 30.78" stroke-width="0.6"/><path d="M56 23.79L60 30.72" stroke-width="1.2"/><path d="M62.81 20.24L64.29 23.42" stroke-width="0.6"/><path d="M69.9 17.31L71.1 20.6" stroke-width="0.6"/><path d="M77.22 15L78.13 18.38" stroke-width="0.6"/><path d="M84.72 13.34L85.33 16.78" stroke-width="0.6"/><path d="M92.33 12.33L92.64 15.82" stroke-width="0.6"/><path d="M100 12L100 20" stroke-width="1.2"/><path d="M107.67 12.33L107.36 15.82" stroke-width="0.6"/><path d="M115.28 13.34L114.67 16.78" stroke-width="0.6"/><path d="M122.78 15L121.87 18.38" stroke-width="0.6"/><path d="M130.1 17.31L128.9 20.6" stroke-width="0.6"/><path d="M137.19 20.24L135.71 23.42" stroke-width="0.6"/><path d="M144 23.79L140 30.72" stroke-width="1.2"/><path d="M150.47 27.91L148.47 30.78" stroke-width="0.6"/><path d="M156.57 32.59L154.32 35.27" stroke-width="0.6"/><path d="M162.23 37.77L159.75 40.25" stroke-width="0.6"/><path d="M167.41 43.43L164.73 45.68" stroke-width="0.6"/><path d="M172.09 49.53L169.22 51.53" stroke-width="0.6"/><path d="M176.21 56L169.28 60" stroke-width="1.2"/><path d="M179.76 62.81L176.58 64.29" stroke-width="0.6"/><path d="M182.69 69.9L179.4 71.1" stroke-width="0.6"/><path d="M185 77.22L181.62 78.13" stroke-width="0.6"/><path d="M186.66 84.72L183.22 85.33" stroke-width="0.6"/><path d="M187.67 92.33L184.18 92.64" stroke-width="0.6"/><path transform="translate(100 26) rotate(0)" d="M-3 -5v10M-3 -1l5-4" stroke-width="1.3"/><path transform="translate(137 35.91) rotate(30)" d="M0 -5v10M0 -5l4 3-4 3" stroke-width="1.3"/><path transform="translate(164.09 63) rotate(60)" d="M-3 -5l3 10 3-10" stroke-width="1.3"/><path transform="translate(174 100) rotate(90)" d="M-3 5V-5l6 10V-5" stroke-width="1.3"/><path transform="translate(164.09 137) rotate(120)" d="M-3 -5h6l-6 10h6" stroke-width="1.3"/><path transform="translate(137 164.09) rotate(150)" d="M0 -5v10M-4 -1l4 -4 4 4" stroke-width="1.3"/><path transform="translate(100 174) rotate(180)" d="M-4 0l4-5 4 5-4 5Z" stroke-width="1.3"/><path transform="translate(63 164.09) rotate(210)" d="M-3 -5v10M3 -5v10M-3 -2l6 4" stroke-width="1.3"/><path transform="translate(35.91 137) rotate(240)" d="M0 -5v10M-4 -5l8 10" stroke-width="1.3"/><path transform="translate(26 100) rotate(270)" d="M-3 -5l6 5-6 5" stroke-width="1.3"/><path transform="translate(35.91 63) rotate(300)" d="M-4 -4l8 8M4 -4l-8 8" stroke-width="1.3"/><path transform="translate(63 35.91) rotate(330)" d="M0 -5v10M-3 -3h6" stroke-width="1.3"/><path d="M100 42L158 100L100 158L42 100Z" stroke-width="1"/><path d="M141.01 58.99L141.01 141.01L58.99 141.01L58.99 58.99Z" stroke-width="1"/><circle cx="100" cy="100" r="40" stroke-width=".8"/></svg>
